<?xml version="1.0" encoding="utf-8"?>
<!-- Generator: Adobe Illustrator 28.0.0, SVG Export Plug-In . SVG Version: 6.00 Build 0)  -->
<svg version="1.1" id="Layer_1" xmlns="http://www.w3.org/2000/svg" xmlns:xlink="http://www.w3.org/1999/xlink" x="0px" y="0px"
	 viewBox="0 0 287.07 222.4" style="enable-background:new 0 0 287.07 222.4;" xml:space="preserve">
<style type="text/css">
	.st0{fill:#636466;stroke:#CEEAE4;stroke-width:0.2951;stroke-miterlimit:10;}
	.st1{fill:#939598;stroke:#CEEAE4;stroke-width:0.5901;stroke-miterlimit:10;}
	.st2{fill:#C7C8CA;stroke:#CEEAE4;stroke-width:0.8852;stroke-miterlimit:10;}
	.st3{fill:#FFFFFF;stroke:#CEEAE4;stroke-width:1.1802;stroke-miterlimit:10;}
</style>
<g>
	<g>
		<g>
			<path d="M6.3,28.13c1.95,1.72,3.89,3.19,5.81,4.36c1.92,1.17,3.71,1.92,5.37,2.23c1.59,0.29,2.8,0.25,3.64-0.13
				c0.83-0.38,1.25-1.09,1.25-2.12c0-0.54-0.18-0.99-0.54-1.35c-0.36-0.36-0.84-0.69-1.44-0.99c-0.6-0.29-1.29-0.56-2.09-0.81
				c-0.8-0.24-1.62-0.55-2.44-0.87c-0.78-0.3-1.73-0.63-2.79-1.02c-1.07-0.39-2.16-0.9-3.28-1.5c-1.12-0.6-2.23-1.3-3.34-2.1
				c-1.1-0.8-2.09-1.74-2.96-2.81c-0.87-1.07-1.56-2.28-2.09-3.61c-0.52-1.34-0.79-2.85-0.79-4.55c0-2.51,0.49-4.53,1.47-6.13
				s2.22-2.89,3.72-3.86C7.29,1.9,8.96,1.2,10.81,0.8c1.84-0.4,3.64-0.62,5.37-0.61c3.04,0,5.76,0.51,8.17,1.57
				c2.41,1.06,4.71,2.63,6.92,4.73c0.29,0.31,0.45,0.69,0.49,1.12c0.04,0.44-0.05,0.83-0.27,1.17c-1.69,2.84-2.54,4.24-4.23,6.96
				c-0.22,0.33-0.51,0.52-0.87,0.58c-0.36,0.06-0.69-0.05-0.98-0.32c-1.84-1.48-3.56-2.55-5.15-3.21c-1.59-0.66-3.06-1.03-4.4-1.12
				c-0.4-0.03-0.86-0.05-1.38-0.06c-0.52-0.02-1.02,0.03-1.49,0.13c-0.47,0.11-0.86,0.3-1.17,0.59c-0.31,0.29-0.46,0.71-0.46,1.26
				c0,0.55,0.38,1.08,1.14,1.58c0.76,0.51,1.63,0.97,2.6,1.39c0.98,0.42,1.92,0.76,2.82,1.03c0.9,0.27,1.48,0.44,1.74,0.5
				c1.3,0.41,2.73,0.97,4.29,1.67c1.55,0.71,3.01,1.68,4.37,2.93c1.36,1.25,2.5,2.84,3.42,4.76c0.92,1.92,1.38,4.27,1.38,7.02
				c0,2.58-0.38,4.76-1.14,6.51c-0.76,1.75-1.82,3.11-3.17,4.06c-1.36,0.95-2.98,1.52-4.88,1.7c-1.9,0.17-4.01-0.01-6.32-0.57
				c-1.88-0.45-3.64-1.07-5.26-1.83s-3.15-1.64-4.56-2.62c-1.41-0.97-2.72-2.02-3.93-3.14c-1.21-1.12-2.32-2.24-3.34-3.37
				c-0.29-0.3-0.45-0.65-0.49-1.04c-0.04-0.39,0.05-0.7,0.27-0.93c1.67-1.94,2.51-2.97,4.18-5.1c0.22-0.25,0.51-0.38,0.87-0.38
				C5.69,27.76,6.01,27.88,6.3,28.13z"/>
			<path d="M63.6,13.83c-3.04-0.04-4.56-0.06-7.6-0.13c-0.36-0.01-0.67,0.15-0.92,0.46c-0.25,0.32-0.38,0.7-0.38,1.16
				c0,11.28,0,22.55,0,33.83c0,0.44-0.12,0.81-0.35,1.11c-0.24,0.3-0.55,0.43-0.95,0.4c-3.26-0.22-4.88-0.36-8.14-0.69
				c-0.36-0.04-0.67-0.22-0.92-0.55c-0.25-0.33-0.38-0.72-0.38-1.15c0-11.09,0-22.17,0-33.26c0-0.45-0.12-0.84-0.35-1.16
				c-0.24-0.32-0.55-0.49-0.95-0.5c-3.08-0.11-4.62-0.17-7.7-0.3c-0.36-0.02-0.67-0.18-0.92-0.5c-0.25-0.32-0.38-0.69-0.38-1.13
				c0-3.57,0-5.36,0-8.96c0-0.44,0.13-0.81,0.38-1.12c0.25-0.31,0.56-0.46,0.92-0.46c9.55,0.03,19.1,0.05,28.65,0.05
				c0.4,0,0.71,0.17,0.95,0.5s0.35,0.73,0.35,1.2c0,3.84,0,5.75,0,9.55c0,0.47-0.12,0.86-0.35,1.18C64.31,13.67,64,13.83,63.6,13.83
				z"/>
			<path d="M78.57,51.28c-3.25,0.05-4.88,0.06-8.13,0.03c-0.36,0-0.67-0.16-0.93-0.48c-0.25-0.31-0.38-0.69-0.38-1.14
				c0-15.69,0-31.38,0-47.07c0-0.47,0.13-0.87,0.38-1.2c0.25-0.33,0.56-0.5,0.92-0.5c6.75,0,10.12,0,16.87,0
				c2.1,0,4.03,0.46,5.81,1.38c1.77,0.92,3.28,2.2,4.53,3.79c1.25,1.6,2.22,3.46,2.93,5.61s1.06,4.51,1.06,7.11
				c0,1.43-0.14,2.86-0.41,4.29c-0.27,1.43-0.66,2.79-1.17,4.1c-0.51,1.3-1.1,2.5-1.79,3.58c-0.69,1.09-1.47,2.02-2.33,2.8
				c-0.29,0.31-0.48,0.64-0.57,1.02c-0.09,0.38-0.03,0.75,0.19,1.1c1.37,2.18,2.82,4.1,4.34,6.14c1.52,2.05,2.88,3.87,4.07,5.51
				c0.22,0.3,0.27,0.66,0.16,1.08c-0.11,0.42-0.34,0.67-0.71,0.74c-4.04,0.79-6.06,1.39-10.09,1.6c-0.36,0.02-0.75-0.08-1.17-0.3
				c-0.41-0.22-0.73-0.5-0.95-0.84c-1.15-1.78-2.29-3.61-3.43-5.48c-1.13-1.87-2.26-3.78-3.38-5.74c-0.22-0.35-0.52-0.65-0.92-0.89
				c-0.4-0.24-0.77-0.36-1.13-0.36c-0.48,0.01-0.71,0.01-1.19,0.01c-0.36,0-0.67,0.17-0.92,0.48c-0.25,0.32-0.38,0.7-0.38,1.15
				c0,4.38,0,6.55,0,10.85c0,0.44-0.13,0.82-0.38,1.13C79.24,51.12,78.93,51.28,78.57,51.28z M81.17,24.62
				c2.29-0.01,3.43-0.02,5.72-0.05c0.43,0,0.88-0.11,1.35-0.33c0.47-0.21,0.9-0.54,1.3-0.98c0.4-0.44,0.72-0.98,0.97-1.63
				c0.25-0.65,0.38-1.4,0.38-2.28c0-0.46-0.06-1-0.19-1.62c-0.13-0.62-0.34-1.22-0.65-1.8c-0.31-0.58-0.72-1.06-1.24-1.45
				c-0.52-0.39-1.16-0.59-1.92-0.58c-2.29,0.01-3.43,0.02-5.72,0.02c-0.36,0-0.67,0.17-0.92,0.49c-0.25,0.33-0.38,0.72-0.38,1.19
				c0,2.96,0,4.43,0,7.36c0,0.46,0.13,0.85,0.38,1.17C80.51,24.46,80.81,24.62,81.17,24.62z"/>
			<path d="M106.41,25.15c0-3.39,0.54-6.67,1.63-9.77c1.09-3.1,2.55-5.82,4.4-8.11c1.85-2.3,4.02-4.09,6.51-5.38
				c2.5-1.29,5.15-1.89,7.98-1.89c2.82,0,5.48,0.6,7.98,1.72c2.5,1.12,4.67,2.6,6.54,4.4c1.86,1.81,3.34,3.88,4.42,6.25
				c1.08,2.37,1.63,4.89,1.63,7.64c0,2.75-0.54,5.42-1.63,8.07c-1.09,2.65-2.56,5.1-4.42,7.36c-1.86,2.26-4.04,4.25-6.54,5.94
				c-2.5,1.69-5.15,2.89-7.98,3.53c-2.82,0.64-5.48,0.66-7.98-0.01c-2.5-0.67-4.67-1.88-6.51-3.67c-1.84-1.78-3.31-4.06-4.4-6.83
				C106.95,31.65,106.41,28.54,106.41,25.15z M117.15,23.88c0,1.58,0.25,3.03,0.76,4.36c0.51,1.32,1.2,2.44,2.09,3.36
				c0.89,0.91,1.93,1.57,3.12,1.98c1.19,0.41,2.46,0.49,3.8,0.25c1.34-0.24,2.6-0.77,3.8-1.58c1.19-0.81,2.24-1.78,3.15-2.92
				c0.9-1.14,1.61-2.38,2.12-3.74c0.51-1.35,0.76-2.74,0.76-4.16c0-1.39-0.25-2.7-0.76-3.94c-0.51-1.25-1.21-2.32-2.12-3.21
				c-0.9-0.9-1.95-1.61-3.15-2.12c-1.19-0.52-2.46-0.74-3.8-0.65c-1.34,0.09-2.6,0.48-3.8,1.2c-1.19,0.72-2.23,1.64-3.12,2.76
				c-0.89,1.13-1.58,2.43-2.09,3.92C117.41,20.83,117.15,22.35,117.15,23.88z"/>
			<path d="M175.37,32.38c-4.21-3.17-6.32-4.81-10.53-8.31c-0.25-0.22-0.46-0.28-0.62-0.19c-0.16,0.09-0.24,0.3-0.24,0.62
				c0,3.97,0,5.97,0,10c0,0.33-0.13,0.63-0.38,0.92c-0.25,0.29-0.56,0.47-0.92,0.55c-3.26,0.73-4.88,1.1-8.14,1.84
				c-0.4,0.09-0.71,0.04-0.95-0.14c-0.24-0.19-0.35-0.45-0.35-0.8c0-11.67,0-23.34,0-35c0-0.34,0.12-0.62,0.35-0.86
				c0.24-0.24,0.55-0.36,0.95-0.36c3.26-0.02,4.88-0.02,8.14-0.04c0.36,0,0.67,0.11,0.92,0.32c0.25,0.22,0.38,0.48,0.38,0.79
				c0,4.3,0,6.47,0,10.84c0,0.32,0.07,0.49,0.22,0.53c0.14,0.03,0.33-0.09,0.54-0.36c3.91-4.88,5.86-7.16,9.77-11.32
				c0.22-0.23,0.52-0.43,0.92-0.59c0.4-0.16,0.8-0.24,1.19-0.24c4.15-0.02,6.22-0.03,10.36-0.05c0.4,0,0.65,0.12,0.76,0.36
				c0.11,0.24,0.05,0.47-0.16,0.68c-5.71,5.18-8.56,8.16-14.27,14.77c-0.22,0.27-0.32,0.56-0.3,0.87s0.15,0.56,0.41,0.74
				c1.23,0.96,2.53,1.94,3.91,2.93c1.37,0.99,2.74,1.97,4.1,2.95c1.36,0.98,2.7,1.92,4.01,2.85c1.32,0.93,2.58,1.77,3.77,2.54
				c0.25,0.19,0.34,0.43,0.27,0.74c-0.07,0.31-0.31,0.49-0.71,0.57c-4.49,0.84-6.74,1.29-11.23,2.22c-0.4,0.08-0.81,0.09-1.22,0.02
				C175.91,32.72,175.59,32.59,175.37,32.38z"/>
			<path d="M202.83,29.58c-3.26,0.1-4.89,0.16-8.15,0.33c-0.4,0.02-0.71-0.06-0.94-0.25c-0.23-0.19-0.35-0.43-0.35-0.71
				c0-11.76,0-17.26,0-27.52c0-0.25,0.12-0.46,0.35-0.64c0.23-0.17,0.55-0.26,0.94-0.26c3.26,0,4.89,0,8.15,0
				c0.36,0,0.67,0.09,0.92,0.26c0.25,0.17,0.38,0.38,0.38,0.63c0,10.19,0,15.61,0,27.12c0,0.28-0.13,0.52-0.38,0.73
				C203.5,29.47,203.19,29.57,202.83,29.58z"/>
			<path d="M222.09,8.51c0,0.64,0,0.97,0,1.62c0,0.26,0.13,0.48,0.38,0.66c0.25,0.19,0.56,0.28,0.92,0.29
				c5.86,0.1,8.79,0.18,14.65,0.41c0.36,0.01,0.67,0.12,0.92,0.32c0.25,0.2,0.38,0.44,0.38,0.71c0,2.28,0,3.43,0,5.74
				c0,0.28-0.13,0.5-0.38,0.68c-0.25,0.18-0.56,0.25-0.92,0.23c-5.86-0.36-8.79-0.48-14.65-0.63c-0.36-0.01-0.67,0.08-0.92,0.26
				c-0.25,0.18-0.38,0.41-0.38,0.68c0,3.57,0,5.38,0,9.05c0,0.28-0.13,0.51-0.38,0.7c-0.25,0.19-0.56,0.28-0.92,0.27
				c-3.26-0.07-4.89-0.09-8.15-0.08c-0.36,0-0.67-0.09-0.92-0.29c-0.25-0.19-0.38-0.43-0.38-0.71c0-11.43,0-16.83,0-27.05
				c0-0.25,0.13-0.46,0.38-0.63c0.25-0.17,0.56-0.26,0.92-0.26c11.03,0,16.54,0.01,27.57,0.03c0.36,0,0.67,0.1,0.92,0.28
				c0.25,0.19,0.38,0.42,0.38,0.68c0,2.2,0,3.31,0,5.54c0,0.27-0.13,0.5-0.38,0.68c-0.25,0.18-0.56,0.27-0.92,0.26
				c-6.73-0.2-10.09-0.27-16.82-0.36c-0.36,0-0.67,0.08-0.92,0.26C222.22,8.03,222.09,8.25,222.09,8.51z"/>
			<path d="M280.63,2.15c-5.43,8.22-8.14,11.79-13.56,18.63c-0.18,0.26-0.34,0.58-0.49,0.96c-0.14,0.38-0.22,0.73-0.22,1.04
				c0,4.28,0,6.43,0,10.75c0,0.31-0.13,0.56-0.38,0.72c-0.25,0.17-0.56,0.21-0.92,0.13c-3.26-0.69-4.89-1-8.15-1.56
				c-0.36-0.06-0.67-0.22-0.92-0.47c-0.25-0.25-0.38-0.52-0.38-0.82c0-4.08,0-6.1,0-10.13c0-0.29-0.06-0.65-0.19-1.06
				c-0.13-0.41-0.28-0.74-0.46-0.99c-2.17-3.23-4.39-6.28-6.65-9.16c-2.26-2.88-4.51-5.72-6.75-8.53c-0.18-0.24-0.22-0.49-0.11-0.74
				c0.11-0.25,0.34-0.38,0.71-0.38c3.86,0.01,5.79,0.01,9.66,0.03c0.36,0,0.73,0.09,1.11,0.26c0.38,0.17,0.66,0.38,0.84,0.64
				c2.66,3.65,3.99,5.56,6.65,9.56c0.18,0.25,0.4,0.39,0.65,0.4c0.25,0.02,0.47-0.09,0.65-0.31c2.64-3.66,3.96-5.55,6.6-9.51
				c0.18-0.28,0.46-0.51,0.84-0.69c0.38-0.18,0.75-0.28,1.11-0.28c3.91,0.02,5.86,0.03,9.77,0.05c0.36,0,0.62,0.12,0.79,0.36
				C280.99,1.32,280.92,1.68,280.63,2.15z"/>
		</g>
		<g>
			<path class="st0" d="M7.69,75.97c1.95,2.27,3.89,4.24,5.81,5.86c1.92,1.62,3.71,2.76,5.37,3.41c1.59,0.62,2.8,0.81,3.64,0.6
				c0.83-0.21,1.25-0.83,1.25-1.85c0-0.53-0.18-1-0.54-1.43c-0.36-0.42-0.84-0.84-1.44-1.24c-0.6-0.41-1.29-0.81-2.09-1.22
				c-0.8-0.41-1.61-0.89-2.44-1.39c-0.8-0.48-1.73-1.02-2.79-1.67c-1.07-0.65-2.16-1.42-3.28-2.32c-1.12-0.89-2.23-1.9-3.34-3.02
				s-2.09-2.35-2.96-3.7c-0.87-1.34-1.56-2.78-2.09-4.3C2.26,62.19,2,60.58,2,58.86c0-2.53,0.49-4.4,1.47-5.68
				c0.98-1.28,2.22-2.16,3.72-2.65c1.5-0.49,3.17-0.67,5.02-0.53c1.84,0.14,3.64,0.42,5.37,0.87c3.04,0.79,5.76,1.92,8.17,3.46
				c2.41,1.54,4.71,3.5,6.92,5.91c0.29,0.35,0.45,0.74,0.49,1.17c0.04,0.43-0.05,0.79-0.27,1.09c-1.69,2.48-2.54,3.69-4.23,6.04
				c-0.22,0.28-0.51,0.42-0.87,0.41c-0.36-0.01-0.69-0.17-0.98-0.5c-1.84-1.79-3.56-3.19-5.15-4.19c-1.59-1-3.06-1.71-4.4-2.13
				c-0.4-0.13-0.86-0.26-1.38-0.41c-0.52-0.15-1.02-0.24-1.49-0.26c-0.47-0.02-0.86,0.07-1.17,0.28c-0.31,0.21-0.46,0.58-0.46,1.13
				c0,0.55,0.38,1.17,1.14,1.88c0.76,0.7,1.63,1.38,2.6,2.03c0.98,0.65,1.92,1.21,2.82,1.68c0.9,0.47,1.48,0.76,1.74,0.88
				c1.3,0.69,2.73,1.53,4.29,2.51c1.55,0.99,3.01,2.2,4.37,3.64c1.36,1.44,2.5,3.15,3.42,5.14c0.92,1.99,1.38,4.31,1.38,6.97
				c0,2.49-0.38,4.55-1.14,6.15c-0.76,1.6-1.82,2.78-3.17,3.52C28.83,98,27.2,98.33,25.3,98.2c-1.9-0.13-4.01-0.68-6.32-1.67
				c-1.88-0.81-3.64-1.79-5.26-2.91c-1.63-1.12-3.15-2.36-4.56-3.69c-1.41-1.33-2.72-2.73-3.93-4.19c-1.21-1.46-2.32-2.92-3.34-4.37
				c-0.29-0.39-0.45-0.79-0.49-1.2c-0.04-0.4,0.05-0.69,0.27-0.85c1.67-1.44,2.51-2.22,4.18-3.87c0.22-0.19,0.51-0.23,0.87-0.13
				C7.08,75.42,7.4,75.64,7.69,75.97z"/>
			<path class="st0" d="M64.99,70c-3.04-0.07-4.56-0.14-7.6-0.32c-0.36-0.02-0.67,0.11-0.92,0.4c-0.25,0.29-0.38,0.65-0.38,1.08
				c0,10.62,0,21.25,0,31.87c0,0.42-0.12,0.76-0.35,1.04c-0.24,0.28-0.55,0.4-0.95,0.37c-3.26-0.25-4.88-0.43-8.14-0.91
				c-0.36-0.05-0.67-0.25-0.92-0.58c-0.25-0.33-0.38-0.7-0.38-1.12c0-10.58,0-21.15,0-31.73c0-0.43-0.12-0.81-0.35-1.14
				c-0.24-0.33-0.55-0.52-0.95-0.58c-3.08-0.42-4.62-0.66-7.7-1.22c-0.36-0.07-0.67-0.27-0.92-0.62c-0.25-0.34-0.38-0.73-0.38-1.15
				c0-3.45,0-5.18,0-8.66c0-0.42,0.13-0.77,0.38-1.02c0.25-0.26,0.56-0.36,0.92-0.3c9.38,1.53,19.15,2.35,28.65,2.53
				c0.4,0.01,0.71,0.17,0.95,0.49c0.23,0.31,0.35,0.69,0.35,1.13c0,3.59,0,5.37,0,8.92c0,0.44-0.12,0.8-0.35,1.1
				C65.7,69.86,65.39,70.01,64.99,70z"/>
			<path class="st0" d="M82.56,79.54c2.29-0.15,3.43-0.23,5.72-0.43c0.43-0.04,0.88-0.17,1.35-0.4c0.47-0.23,0.9-0.56,1.3-0.99
				c0.4-0.43,0.72-0.95,0.97-1.55c0.25-0.6,0.38-1.3,0.38-2.09c0-0.42-0.06-0.9-0.19-1.45c-0.13-0.55-0.34-1.08-0.65-1.58
				c-0.31-0.5-0.72-0.91-1.24-1.23c-0.52-0.32-1.16-0.45-1.92-0.4c-2.29,0.16-3.43,0.22-5.72,0.34c-0.36,0.02-0.67,0.18-0.92,0.49
				c-0.25,0.31-0.38,0.68-0.38,1.11c0,2.71,0,4.06,0,6.75c0,0.42,0.13,0.77,0.38,1.05C81.9,79.44,82.2,79.56,82.56,79.54z
				 M79.96,104.07c-3.25,0.31-4.88,0.44-8.13,0.59c-0.36,0.02-0.67-0.11-0.93-0.39c-0.25-0.28-0.38-0.62-0.38-1.03
				c0-14.54,0-29.09,0-43.63c0-0.44,0.13-0.81,0.38-1.12c0.25-0.31,0.56-0.46,0.92-0.46c6.75,0.01,10.12-0.09,16.87-0.43
				c2.1-0.11,4.03,0.2,5.81,0.91c1.77,0.71,3.28,1.47,4.53,2.66c1.25,1.2,2.22,2.7,2.93,4.51s1.06,3.89,1.06,6.25
				c0,1.3-0.14,2.62-0.41,3.97c-0.27,1.34-0.66,2.65-1.17,3.91c-0.51,1.26-1.1,2.44-1.79,3.52c-0.69,1.09-1.47,2.04-2.33,2.87
				c-0.29,0.32-0.48,0.66-0.57,1.02c-0.09,0.36-0.03,0.68,0.19,0.94c1.37,1.63,2.82,3.27,4.34,4.9c1.52,1.64,2.88,3.11,4.07,4.43
				c0.22,0.24,0.27,0.56,0.16,0.96c-0.11,0.4-0.34,0.65-0.71,0.77c-4.04,1.25-6.06,2.14-10.09,2.84c-0.36,0.06-0.75,0.02-1.17-0.12
				c-0.42-0.14-0.73-0.36-0.95-0.64c-1.15-1.46-2.29-2.98-3.43-4.55c-1.13-1.57-2.26-3.2-3.38-4.88c-0.22-0.3-0.52-0.55-0.92-0.74
				c-0.4-0.19-0.77-0.26-1.13-0.23c-0.48,0.04-0.71,0.06-1.19,0.1c-0.36,0.03-0.67,0.2-0.92,0.51c-0.25,0.31-0.38,0.67-0.38,1.08
				c0,3.99,0,5.97,0,9.9c0,0.4-0.13,0.76-0.38,1.07C80.63,103.86,80.32,104.04,79.96,104.07z"/>
			<path class="st0" d="M118.54,73.68c0,1.47,0.25,2.79,0.76,3.94c0.51,1.15,1.2,2.07,2.09,2.77c0.89,0.7,1.93,1.14,3.12,1.32
				c1.19,0.18,2.46,0.04,3.8-0.43c1.34-0.46,2.6-1.2,3.8-2.19c1.19-0.99,2.24-2.13,3.15-3.4c0.9-1.27,1.61-2.62,2.12-4.04
				c0.51-1.42,0.76-2.82,0.76-4.22c0-1.36-0.25-2.59-0.76-3.7c-0.51-1.11-1.21-2-2.12-2.68s-1.95-1.13-3.15-1.36
				c-1.19-0.23-2.46-0.16-3.8,0.22c-1.34,0.38-2.6,1.04-3.8,1.98c-1.19,0.94-2.23,2.03-3.12,3.28c-0.89,1.25-1.58,2.62-2.09,4.11
				C118.8,70.77,118.54,72.24,118.54,73.68z M107.8,76.85c0-3.1,0.54-6.21,1.63-9.27c1.09-3.06,2.55-5.87,4.4-8.41
				c1.85-2.53,4.01-4.7,6.51-6.5c2.5-1.8,5.15-3.03,7.98-3.72c2.82-0.7,5.48-0.79,7.98-0.31c2.5,0.47,4.67,1.39,6.54,2.74
				c1.86,1.35,3.34,3.08,4.42,5.21c1.08,2.13,1.63,4.56,1.63,7.33c0,2.77-0.54,5.57-1.63,8.41c-1.09,2.85-2.56,5.54-4.42,8.09
				c-1.86,2.55-4.04,4.84-6.54,6.87c-2.5,2.03-5.15,3.58-7.98,4.62c-2.82,1.04-5.48,1.44-7.98,1.19c-2.5-0.25-4.67-1.06-6.51-2.43
				c-1.84-1.37-3.31-3.24-4.4-5.6C108.34,82.7,107.8,79.96,107.8,76.85z"/>
			<path class="st0" d="M176.76,72.6c-4.21-3.06-6.32-4.54-10.53-7.59c-0.25-0.19-0.46-0.22-0.62-0.1
				c-0.16,0.12-0.24,0.35-0.24,0.69c0,4.2,0,6.31,0,10.57c0,0.35-0.13,0.69-0.38,1.02c-0.25,0.33-0.56,0.56-0.92,0.69
				c-3.26,1.17-4.88,1.76-8.14,2.97c-0.4,0.15-0.71,0.14-0.95-0.02c-0.24-0.16-0.35-0.42-0.35-0.77c0-11.93,0-23.87,0-35.8
				c0-0.34,0.12-0.67,0.35-0.97c0.24-0.3,0.55-0.5,0.95-0.6c3.26-0.82,4.88-1.23,8.14-2.02c0.36-0.09,0.67-0.05,0.92,0.12
				c0.25,0.17,0.38,0.42,0.38,0.74c0,4.54,0,6.83,0,11.45c0,0.33,0.07,0.51,0.22,0.51c0.14,0.01,0.33-0.15,0.54-0.49
				c3.91-5.93,5.86-8.79,9.77-14.22c0.22-0.3,0.52-0.59,0.92-0.85c0.4-0.26,0.8-0.44,1.19-0.53c4.15-0.94,6.22-1.39,10.36-2.25
				c0.4-0.08,0.65,0.01,0.76,0.27c0.11,0.26,0.05,0.53-0.16,0.82c-5.71,7.1-8.56,10.96-14.27,19.11c-0.22,0.33-0.32,0.66-0.3,1
				c0.02,0.34,0.15,0.59,0.41,0.74c1.23,0.85,2.53,1.73,3.91,2.64c1.37,0.91,2.74,1.83,4.1,2.77c1.36,0.94,2.69,1.87,4.01,2.8
				c1.32,0.93,2.58,1.8,3.77,2.61c0.25,0.2,0.34,0.47,0.27,0.83c-0.07,0.36-0.31,0.59-0.71,0.7c-4.49,1.25-6.74,1.93-11.23,3.37
				c-0.4,0.13-0.81,0.17-1.22,0.14C177.3,72.92,176.98,72.8,176.76,72.6z"/>
			<path class="st0" d="M204.23,67.26c-3.26,0.37-4.89,0.59-8.15,1.09c-0.4,0.06-0.71,0-0.94-0.2c-0.23-0.19-0.35-0.46-0.35-0.79
				c0-10.65,0-21.31,0-31.96c0-0.29,0.12-0.55,0.35-0.77c0.23-0.22,0.55-0.34,0.94-0.36c3.26-0.18,4.89-0.26,8.15-0.37
				c0.36-0.01,0.67,0.08,0.92,0.27c0.25,0.19,0.38,0.43,0.38,0.72c0,10.36,0,20.71,0,31.07c0,0.32-0.13,0.6-0.38,0.85
				C204.89,67.07,204.58,67.22,204.23,67.26z"/>
			<path class="st0" d="M223.48,42.81c0,0.72,0,1.08,0,1.81c0,0.29,0.13,0.54,0.38,0.75c0.25,0.21,0.56,0.32,0.92,0.33
				c5.86,0.22,8.79,0.43,14.65,1.14c0.36,0.04,0.67,0.19,0.92,0.42c0.25,0.24,0.38,0.51,0.38,0.8c0,2.48,0,3.72,0,6.23
				c0,0.3-0.13,0.54-0.38,0.71c-0.25,0.17-0.56,0.24-0.92,0.19c-5.86-0.77-8.79-0.98-14.65-1.17c-0.36-0.01-0.67,0.08-0.92,0.29
				c-0.25,0.2-0.38,0.45-0.38,0.75c0,3.97,0,5.98,0,10.06c0,0.31-0.13,0.57-0.38,0.78c-0.25,0.21-0.56,0.32-0.92,0.32
				c-3.26-0.01-4.89,0.04-8.15,0.22c-0.36,0.02-0.67-0.07-0.92-0.28c-0.25-0.2-0.38-0.46-0.38-0.78c0-10.22,0-20.45,0-30.67
				c0-0.28,0.13-0.53,0.38-0.73c0.25-0.2,0.56-0.3,0.92-0.3c11.03-0.02,16.54,0.19,27.57,1.42c0.36,0.04,0.67,0.18,0.92,0.41
				c0.25,0.23,0.38,0.49,0.38,0.78c0,2.39,0,3.59,0,6.01c0,0.29-0.13,0.53-0.38,0.7c-0.25,0.17-0.56,0.23-0.92,0.19
				c-6.73-0.86-10.09-1.12-16.82-1.37c-0.36-0.01-0.67,0.08-0.92,0.27C223.61,42.29,223.48,42.52,223.48,42.81z"/>
			<path class="st0" d="M282.03,45.59c-5.43,6.54-8.14,9.46-13.56,15.35c-0.18,0.22-0.34,0.52-0.49,0.89
				c-0.14,0.37-0.22,0.71-0.22,1.04c0,4.45,0,6.68,0,11.16c0,0.33-0.13,0.55-0.38,0.67c-0.25,0.12-0.56,0.11-0.92-0.04
				c-3.26-1.33-4.89-1.93-8.15-2.97c-0.36-0.12-0.67-0.32-0.92-0.62c-0.25-0.3-0.38-0.6-0.38-0.92c0-4.3,0-6.43,0-10.68
				c0-0.31-0.06-0.69-0.19-1.14c-0.13-0.45-0.28-0.83-0.46-1.12c-2.17-3.75-4.39-7.3-6.65-10.67c-2.26-3.37-4.51-6.71-6.75-10.02
				c-0.18-0.28-0.22-0.55-0.11-0.82c0.11-0.26,0.34-0.37,0.71-0.33c3.86,0.47,5.79,0.75,9.66,1.41c0.36,0.06,0.73,0.22,1.11,0.46
				c0.38,0.25,0.66,0.52,0.84,0.83c2.66,4.35,3.99,6.6,6.65,11.33c0.18,0.3,0.4,0.48,0.65,0.55c0.25,0.07,0.47,0,0.65-0.2
				c2.64-3.3,3.96-4.95,6.6-8.37c0.18-0.24,0.46-0.41,0.84-0.5c0.38-0.09,0.75-0.09,1.11,0.01c3.91,1.09,5.86,1.69,9.77,3.02
				c0.36,0.12,0.62,0.34,0.79,0.64C282.38,44.86,282.31,45.21,282.03,45.59z"/>
		</g>
		<g>
			<path class="st1" d="M9.08,123.51c1.95,2.45,3.89,4.51,5.81,6.22c1.92,1.71,3.71,2.92,5.37,3.69c1.59,0.74,2.8,1.05,3.64,0.99
				c0.83-0.06,1.25-0.5,1.25-1.31c0-0.42-0.18-0.83-0.54-1.22c-0.36-0.39-0.84-0.8-1.44-1.22c-0.6-0.42-1.29-0.87-2.09-1.34
				c-0.8-0.47-1.61-1.01-2.44-1.58c-0.8-0.55-1.73-1.17-2.79-1.94c-1.07-0.77-2.16-1.66-3.28-2.68c-1.12-1.03-2.23-2.17-3.34-3.45
				c-1.1-1.27-2.09-2.64-2.96-4.19c-0.87-1.55-1.56-3.16-2.09-4.81c-0.52-1.66-0.79-3.34-0.79-5.08c0-2.54,0.49-4.29,1.47-5.32
				c0.98-1.03,2.22-1.59,3.72-1.71c1.5-0.12,3.17,0.09,5.02,0.63c1.84,0.54,3.64,1.18,5.37,1.95c3.04,1.35,5.76,2.88,8.17,4.72
				c2.41,1.84,4.71,4.01,6.92,6.55c0.29,0.37,0.45,0.76,0.49,1.18c0.04,0.42-0.05,0.76-0.27,1.02c-1.69,2.23-2.54,3.31-4.23,5.41
				c-0.22,0.25-0.51,0.35-0.87,0.3c-0.36-0.05-0.69-0.25-0.98-0.59c-1.84-1.96-3.56-3.56-5.15-4.78c-1.59-1.22-3.06-2.16-4.4-2.8
				c-0.4-0.19-0.86-0.41-1.38-0.65c-0.52-0.24-1.02-0.42-1.49-0.53c-0.47-0.11-0.86-0.1-1.17,0.05c-0.31,0.14-0.46,0.48-0.46,1.02
				c0,0.54,0.38,1.24,1.14,2.08c0.76,0.84,1.63,1.67,2.6,2.48c0.98,0.81,1.92,1.52,2.82,2.12c0.9,0.6,1.48,0.97,1.74,1.12
				c1.3,0.86,2.73,1.88,4.29,3.03c1.55,1.15,3.01,2.48,4.37,4c1.36,1.52,2.5,3.18,3.42,4.81c0.92,1.63,1.38,3.45,1.38,5.48
				c0,1.9-0.38,3.44-1.14,4.6c-0.76,1.16-1.82,1.99-3.17,2.46c-1.36,0.47-2.98,0.6-4.88,0.35c-1.9-0.25-4.01-0.84-6.32-1.83
				c-1.88-0.81-3.64-1.76-5.26-2.85c-1.63-1.09-3.15-2.29-4.56-3.59c-1.41-1.3-2.72-2.69-3.93-4.16c-1.21-1.47-2.32-2.96-3.34-4.47
				c-0.29-0.41-0.45-0.82-0.49-1.21c-0.04-0.4,0.05-0.66,0.27-0.8c1.67-1.2,2.51-1.8,4.18-3c0.22-0.13,0.51-0.11,0.87,0.05
				C8.47,122.89,8.79,123.15,9.08,123.51z"/>
			<path class="st1" d="M66.38,122.24c-3.04,0.1-4.56,0.11-7.6,0.01c-0.36-0.01-0.67,0.12-0.92,0.39c-0.25,0.27-0.38,0.61-0.38,1.02
				c0,12.17,0,16.55,0,25.89c0,0.31-0.12,0.57-0.35,0.77c-0.24,0.2-0.55,0.29-0.95,0.27c-3.26-0.21-4.88-0.36-8.14-0.81
				c-0.36-0.05-0.67-0.2-0.92-0.45c-0.25-0.25-0.38-0.54-0.38-0.85c0-9.3,0-13.61,0-25.85c0-0.41-0.12-0.77-0.35-1.09
				c-0.24-0.32-0.55-0.51-0.95-0.58c-3.08-0.5-4.62-0.82-7.7-1.58c-0.36-0.09-0.67-0.31-0.92-0.66c-0.25-0.35-0.38-0.73-0.38-1.14
				c0-3.32,0-4.99,0-8.33c0-0.41,0.13-0.73,0.38-0.95c0.25-0.23,0.56-0.29,0.92-0.21c9.06,2.26,19.32,3.25,28.65,2.94
				c0.4-0.01,0.71,0.13,0.95,0.41c0.23,0.28,0.35,0.62,0.35,1.03c0,3.32,0,4.97,0,8.25c0,0.4-0.12,0.75-0.35,1.04
				C67.1,122.07,66.78,122.23,66.38,122.24z"/>
			<path class="st1" d="M83.96,129.29c2.29-0.44,3.43-0.68,5.72-1.2c0.43-0.1,0.88-0.29,1.35-0.56c0.47-0.28,0.9-0.64,1.3-1.08
				c0.4-0.45,0.72-0.96,0.97-1.54c0.25-0.58,0.38-1.22,0.38-1.92c0-0.37-0.06-0.79-0.19-1.26c-0.13-0.47-0.34-0.91-0.65-1.31
				c-0.31-0.4-0.72-0.7-1.24-0.91c-0.52-0.21-1.16-0.24-1.92-0.09c-2.29,0.45-3.43,0.66-5.72,1.04c-0.36,0.06-0.67,0.24-0.92,0.55
				c-0.25,0.31-0.38,0.66-0.38,1.05c0,2.46,0,3.68,0,6.1c0,0.38,0.13,0.68,0.38,0.9C83.29,129.28,83.6,129.36,83.96,129.29z
				 M81.35,149.74c-3.25,0.39-4.88,0.55-8.13,0.77c-0.36,0.02-0.67-0.07-0.93-0.27c-0.25-0.21-0.38-0.47-0.38-0.79
				c0-12.39,0-24.77,0-37.16c0-0.4,0.13-0.76,0.38-1.05c0.25-0.3,0.56-0.46,0.92-0.48c6.75-0.45,10.12-0.88,16.87-2.02
				c2.1-0.35,4.03-0.22,5.81,0.04c1.77,0.25,3.28,0.84,4.53,1.79c1.25,0.95,2.22,2.2,2.93,3.77s1.06,3.42,1.06,5.56
				c0,1.18-0.14,2.38-0.41,3.62c-0.27,1.24-0.66,2.44-1.17,3.6c-0.51,1.16-1.1,2.25-1.79,3.26c-0.69,1.01-1.47,1.91-2.33,2.69
				c-0.29,0.3-0.48,0.61-0.57,0.94c-0.09,0.33-0.03,0.6,0.19,0.82c1.37,1.37,2.82,2.74,4.34,4.12c1.52,1.38,2.88,2.62,4.07,3.76
				c0.22,0.21,0.27,0.49,0.16,0.85c-0.11,0.36-0.34,0.6-0.71,0.72c-4.04,1.29-6.06,1.9-10.09,3.03c-0.36,0.1-0.75,0.09-1.17-0.01
				c-0.42-0.11-0.73-0.27-0.95-0.51c-1.15-1.21-2.29-2.43-3.43-3.68c-1.13-1.25-2.26-2.52-3.38-3.81c-0.22-0.23-0.52-0.41-0.92-0.52
				c-0.4-0.11-0.77-0.14-1.13-0.08c-0.48,0.08-0.71,0.13-1.19,0.21c-0.36,0.06-0.67,0.23-0.92,0.51c-0.25,0.28-0.38,0.58-0.38,0.92
				c0,3.26,0,4.88,0,8.06c0,0.33-0.13,0.62-0.38,0.88C82.02,149.55,81.71,149.7,81.35,149.74z"/>
			<path class="st1" d="M119.94,120.16c0,1.38,0.25,2.56,0.76,3.59c0.51,1.02,1.2,1.83,2.09,2.42c0.89,0.59,1.93,0.93,3.12,1.02
				c1.19,0.09,2.46-0.12,3.8-0.64c1.34-0.52,2.6-1.3,3.8-2.32c1.19-1.03,2.24-2.19,3.15-3.48c0.9-1.3,1.61-2.66,2.12-4.09
				c0.51-1.43,0.76-2.83,0.76-4.2c0-1.34-0.25-2.53-0.76-3.58s-1.21-1.85-2.12-2.42c-0.9-0.56-1.95-0.89-3.15-0.99
				c-1.19-0.09-2.46,0.12-3.8,0.64c-1.34,0.52-2.6,1.29-3.8,2.32c-1.19,1.03-2.23,2.18-3.12,3.45c-0.89,1.27-1.58,2.63-2.09,4.09
				C120.19,117.41,119.94,118.81,119.94,120.16z M109.19,123.99c0-2.84,0.54-5.72,1.63-8.64c1.09-2.92,2.55-5.67,4.4-8.24
				c1.85-2.57,4.01-4.87,6.51-6.9c2.5-2.03,5.15-3.57,7.98-4.63c2.82-1.06,5.48-1.53,7.98-1.4c2.5,0.13,4.68,0.75,6.54,1.88
				c1.86,1.12,3.34,2.7,4.42,4.75c1.08,2.05,1.63,4.47,1.63,7.28c0,2.81-0.54,5.71-1.63,8.65c-1.09,2.94-2.56,5.71-4.42,8.31
				c-1.86,2.6-4.04,4.92-6.54,6.96c-2.5,2.04-5.15,3.59-7.98,4.66c-2.82,1.07-5.48,1.52-7.98,1.39c-2.5-0.14-4.67-0.78-6.51-1.93
				c-1.84-1.15-3.31-2.75-4.4-4.82C109.73,129.23,109.19,126.83,109.19,123.99z"/>
			<path class="st1" d="M178.15,116.87c-4.21-3.52-6.32-5.19-10.53-8.41c-0.25-0.2-0.46-0.23-0.62-0.1
				c-0.16,0.13-0.24,0.38-0.24,0.75c0,4.52,0,6.79,0,11.38c0,0.37-0.13,0.74-0.38,1.09c-0.25,0.35-0.56,0.6-0.92,0.73
				c-3.26,1.19-4.88,1.8-8.14,3.03c-0.4,0.15-0.71,0.14-0.95-0.03s-0.35-0.44-0.35-0.8c0-12.35,0-24.7,0-37.05
				c0-0.35,0.12-0.7,0.35-1.04c0.24-0.34,0.55-0.58,0.95-0.73c3.26-1.23,4.88-1.84,8.14-3.02c0.36-0.13,0.67-0.12,0.92,0.03
				c0.25,0.15,0.38,0.4,0.38,0.75c0,4.82,0,7.25,0,12.16c0,0.36,0.07,0.53,0.22,0.53c0.14,0,0.33-0.18,0.54-0.55
				c3.91-6.55,5.86-9.77,9.77-16.01c0.22-0.35,0.52-0.68,0.92-1c0.4-0.32,0.8-0.54,1.19-0.67c4.15-1.34,6.22-1.98,10.36-3.15
				c0.4-0.11,0.65-0.02,0.76,0.27c0.11,0.3,0.05,0.61-0.16,0.94c-5.71,8.36-8.56,12.76-14.27,21.8c-0.22,0.36-0.32,0.72-0.3,1.1
				c0.02,0.38,0.15,0.65,0.41,0.82c1.23,0.93,2.53,1.9,3.91,2.91c1.37,1.02,2.74,2.07,4.1,3.15c1.36,1.08,2.69,2.17,4.01,3.27
				c1.32,1.1,2.58,2.09,3.77,3.15c0.25,0.25,0.34,0.58,0.27,0.97c-0.07,0.4-0.31,0.63-0.71,0.71c-4.49,0.88-6.74,1.9-11.23,3.34
				c-0.4,0.13-0.81,0.16-1.22,0.11C178.69,117.24,178.37,117.1,178.15,116.87z"/>
			<path class="st1" d="M205.62,111.59c-3.26,0.39-4.89,0.63-8.15,1.18c-0.4,0.07-0.71-0.02-0.94-0.25
				c-0.23-0.23-0.35-0.54-0.35-0.92c0-12.32,0-24.64,0-36.96c0-0.34,0.12-0.64,0.35-0.92c0.23-0.27,0.55-0.44,0.94-0.51
				c3.26-0.54,4.89-0.77,8.15-1.16c0.36-0.04,0.67,0.04,0.92,0.23c0.25,0.2,0.38,0.46,0.38,0.79c0,12.31,0,24.63,0,36.94
				c0,0.4-0.13,0.75-0.38,1.06S205.98,111.55,205.62,111.59z"/>
			<path class="st1" d="M224.87,80.87c0,0.79,0,1.19,0,1.99c0,0.32,0.13,0.59,0.38,0.81c0.25,0.22,0.56,0.33,0.92,0.34
				c5.86,0.04,8.79,0.25,14.65,1.17c0.36,0.06,0.67,0.22,0.92,0.48c0.25,0.26,0.38,0.56,0.38,0.87c0,2.66,0,4.13,0,7.53
				c0,0.41-0.13,0.73-0.38,0.97c-0.25,0.24-0.56,0.33-0.92,0.28c-5.86-0.91-8.79-1.12-14.65-1.16c-0.36,0-0.67,0.14-0.92,0.42
				c-0.25,0.28-0.38,0.62-0.38,1.02c0,5.33,0,8.02,0,13.45c0,0.41-0.13,0.76-0.38,1.04c-0.25,0.28-0.56,0.42-0.92,0.42
				c-3.26-0.01-4.89,0.03-8.15,0.22c-0.36,0.02-0.67-0.1-0.92-0.37c-0.25-0.27-0.38-0.6-0.38-1c0-12.33,0-24.65,0-36.98
				c0-0.32,0.13-0.6,0.38-0.84c0.25-0.24,0.56-0.37,0.92-0.39c11.03-0.6,16.54-0.44,27.57,1.48c0.36,0.06,0.67,0.23,0.92,0.49
				c0.25,0.26,0.38,0.55,0.38,0.86c0,2.56,0,3.85,0,6.45c0,0.32-0.13,0.56-0.38,0.73c-0.25,0.17-0.56,0.23-0.92,0.16
				c-6.73-1.21-10.09-1.49-16.82-1.58c-0.36-0.01-0.67,0.1-0.92,0.32C225,80.29,224.87,80.56,224.87,80.87z"/>
			<path class="st1" d="M283.42,90.19c-5.43,5.05-8.14,6.48-13.56,13.06c-0.18,0.25-0.34,0.6-0.49,1.03
				c-0.14,0.43-0.22,0.84-0.22,1.23c0,5.37,0,8.06,0,13.45c0,0.39-0.13,0.67-0.38,0.83c-0.25,0.16-0.56,0.16-0.92,0
				c-3.26-1.46-4.89-2.11-8.15-3.25c-0.36-0.13-0.67-0.37-0.92-0.74c-0.25-0.37-0.38-0.76-0.38-1.16c0-5.53,0-8.29,0-13.77
				c0-0.4-0.06-0.89-0.19-1.48c-0.13-0.59-0.28-1.07-0.46-1.46c-2.17-4.91-4.39-8.8-6.65-12.56c-2.26-3.76-4.51-7.47-6.75-11.15
				c-0.18-0.31-0.22-0.61-0.11-0.88c0.11-0.27,0.34-0.38,0.71-0.31c3.86,0.75,5.79,1.21,9.66,2.35c0.36,0.11,0.73,0.31,1.11,0.62
				c0.38,0.31,0.66,0.63,0.84,0.97c2.66,4.91,3.99,7.45,6.65,12.76c0.18,0.34,0.4,0.56,0.65,0.67c0.25,0.11,0.47,0.07,0.65-0.11
				c2.64-3.03,3.96-4.5,6.6-7.48c0.18-0.21,0.46-0.32,0.84-0.33c0.38-0.01,0.75,0.07,1.11,0.26c3.91,1.99,5.86,3.1,9.77,5.59
				c0.36,0.23,0.62,0.52,0.79,0.88C283.77,89.56,283.71,89.89,283.42,90.19z"/>
		</g>
		<g>
			<path class="st2" d="M10.48,166.82c1.95,1.95,3.89,3.54,5.81,4.83c1.92,1.28,3.71,2.14,5.37,2.61c1.59,0.45,2.8,0.58,3.64,0.4
				c0.83-0.17,1.25-0.65,1.25-1.42c0-0.4-0.18-0.77-0.54-1.1c-0.36-0.33-0.84-0.65-1.44-0.98c-0.6-0.32-1.29-0.65-2.09-0.98
				c-0.8-0.33-1.61-0.72-2.44-1.14c-0.8-0.39-1.73-0.84-2.79-1.39c-1.07-0.55-2.16-1.2-3.28-1.97c-1.12-0.77-2.23-1.65-3.34-2.65
				c-1.1-1-2.09-2.12-2.96-3.38c-0.87-1.25-1.56-2.62-2.09-4.08c-0.52-1.46-0.79-3.03-0.79-4.67c0-2.42,0.49-4.15,1.47-5.17
				c0.98-1.03,2.22-1.58,3.72-1.69c1.5-0.11,3.17,0.12,5.02,0.65c1.84,0.53,3.64,1.15,5.37,1.87c3.04,1.26,5.76,2.63,8.17,4.18
				c2.41,1.55,4.71,3.31,6.92,5.3c0.29,0.29,0.45,0.59,0.49,0.91c0.04,0.32-0.05,0.57-0.27,0.77c-1.69,1.65-2.54,2.46-4.23,4.07
				c-0.22,0.19-0.51,0.27-0.87,0.23c-0.36-0.04-0.69-0.19-0.98-0.45c-1.84-1.51-3.56-2.76-5.15-3.73c-1.59-0.96-3.06-1.71-4.4-2.22
				c-0.4-0.15-0.86-0.32-1.38-0.51c-0.52-0.19-1.02-0.33-1.49-0.4c-0.47-0.08-0.86-0.05-1.17,0.08c-0.31,0.13-0.46,0.43-0.46,0.9
				c0,0.46,0.38,1.03,1.14,1.7c0.76,0.66,1.63,1.31,2.6,1.93c0.98,0.62,1.92,1.15,2.82,1.61c0.9,0.45,1.48,0.73,1.74,0.84
				c1.3,0.64,2.73,1.41,4.29,2.27c1.55,0.86,3.01,1.86,4.37,3c1.36,1.14,2.5,2.44,3.42,3.91c0.92,1.47,1.38,3.16,1.38,5.07
				c0,1.79-0.38,3.27-1.14,4.43c-0.76,1.16-1.82,2.04-3.17,2.63c-1.36,0.59-2.98,0.91-4.88,0.93c-1.9,0.02-4.01-0.22-6.32-0.77
				c-1.88-0.45-3.64-1.03-5.26-1.75c-1.63-0.72-3.15-1.55-4.56-2.48c-1.41-0.94-2.72-1.97-3.93-3.09c-1.21-1.12-2.32-2.28-3.34-3.48
				c-0.29-0.32-0.45-0.68-0.49-1.06c-0.04-0.38,0.05-0.67,0.27-0.86c1.67-1.66,2.51-2.46,4.18-4.06c0.22-0.18,0.51-0.24,0.87-0.16
				C9.86,166.35,10.19,166.53,10.48,166.82z"/>
			<path class="st2" d="M67.77,164.02c-3.04,0.02-4.56,0-7.6-0.13c-0.36-0.02-0.67,0.08-0.92,0.27c-0.25,0.2-0.38,0.45-0.38,0.75
				c0,9.01,0,13.39,0,21.9c0,0.28-0.12,0.52-0.35,0.7c-0.24,0.19-0.55,0.27-0.95,0.24c-3.26-0.19-4.88-0.31-8.14-0.61
				c-0.36-0.03-0.67-0.16-0.92-0.39c-0.25-0.23-0.38-0.48-0.38-0.77c0-8.61,0-13.02,0-22.04c0-0.3-0.12-0.57-0.35-0.81
				c-0.24-0.24-0.55-0.39-0.95-0.45c-3.08-0.43-4.62-0.69-7.7-1.32c-0.36-0.07-0.67-0.24-0.92-0.51c-0.25-0.27-0.38-0.55-0.38-0.86
				c0-2.5,0-3.75,0-6.27c0-0.31,0.13-0.54,0.38-0.7c0.25-0.16,0.56-0.2,0.92-0.12c9.12,2.08,19.31,2.96,28.65,2.63
				c0.4-0.01,0.71,0.09,0.95,0.3c0.23,0.21,0.35,0.47,0.35,0.78c0,2.54,0,3.79,0,6.29c0,0.31-0.12,0.57-0.35,0.78
				C68.49,163.91,68.17,164.02,67.77,164.02z"/>
			<path class="st2" d="M85.35,170.22c2.29-0.19,3.43-0.3,5.72-0.54c0.43-0.05,0.88-0.17,1.35-0.36c0.47-0.19,0.9-0.46,1.3-0.81
				c0.4-0.35,0.72-0.76,0.97-1.24c0.25-0.48,0.38-1.02,0.38-1.63c0-0.32-0.06-0.69-0.19-1.11c-0.13-0.42-0.34-0.81-0.65-1.17
				c-0.31-0.36-0.72-0.65-1.24-0.85c-0.52-0.2-1.16-0.25-1.92-0.16c-2.29,0.29-3.43,0.43-5.72,0.66c-0.36,0.04-0.67,0.18-0.92,0.42
				c-0.25,0.25-0.38,0.52-0.38,0.84c0,1.99,0,2.98,0,4.94c0,0.31,0.13,0.56,0.38,0.76C84.68,170.17,84.99,170.25,85.35,170.22z
				 M82.74,187.97c-3.25,0.11-4.88,0.15-8.13,0.18c-0.36,0-0.67-0.09-0.93-0.29c-0.25-0.2-0.38-0.44-0.38-0.72
				c0-10.23,0-20.46,0-30.69c0-0.31,0.13-0.59,0.38-0.82c0.25-0.24,0.56-0.37,0.92-0.39c6.75-0.45,10.12-0.86,16.87-1.94
				c2.1-0.34,4.03-0.34,5.81-0.18c1.77,0.16,3.28,0.63,4.53,1.43c1.25,0.8,2.22,1.89,2.93,3.28c0.71,1.38,1.06,3.03,1.06,4.93
				c0,1.05-0.14,2.13-0.41,3.23c-0.27,1.1-0.66,2.17-1.17,3.21c-0.51,1.04-1.1,2-1.79,2.9c-0.69,0.89-1.47,1.68-2.33,2.37
				c-0.29,0.26-0.48,0.54-0.57,0.82c-0.09,0.29-0.03,0.53,0.19,0.73c1.37,1.22,2.82,2.47,4.34,3.75c1.52,1.28,2.88,2.47,4.07,3.57
				c0.22,0.2,0.27,0.46,0.16,0.78c-0.11,0.32-0.34,0.52-0.71,0.6c-4.04,0.92-6.06,1.36-10.09,2.19c-0.36,0.07-0.75,0.07-1.17-0.01
				c-0.42-0.08-0.73-0.22-0.95-0.44c-1.15-1.16-2.29-2.35-3.43-3.55c-1.13-1.2-2.26-2.42-3.38-3.67c-0.22-0.22-0.52-0.41-0.92-0.54
				c-0.4-0.14-0.77-0.19-1.13-0.17c-0.48,0.03-0.71,0.05-1.19,0.08c-0.36,0.02-0.67,0.15-0.92,0.37c-0.25,0.22-0.38,0.48-0.38,0.78
				c0,2.89,0,4.31,0,7.13c0,0.29-0.13,0.54-0.38,0.75C83.41,187.85,83.1,187.96,82.74,187.97z"/>
			<path class="st2" d="M121.33,163.17c0,1.28,0.25,2.42,0.76,3.41c0.51,0.99,1.2,1.79,2.09,2.41c0.89,0.62,1.93,1.02,3.12,1.2
				c1.19,0.18,2.46,0.08,3.8-0.31c1.34-0.39,2.6-1.03,3.8-1.93c1.19-0.9,2.24-1.94,3.15-3.14c0.9-1.2,1.61-2.49,2.12-3.86
				c0.51-1.38,0.76-2.75,0.76-4.11c0-1.33-0.25-2.52-0.76-3.59c-0.51-1.06-1.21-1.89-2.12-2.48c-0.9-0.59-1.95-0.95-3.15-1.08
				c-1.19-0.13-2.46,0.05-3.8,0.52c-1.34,0.47-2.6,1.18-3.8,2.13c-1.19,0.95-2.23,2.01-3.12,3.19c-0.89,1.17-1.58,2.43-2.09,3.77
				S121.33,161.92,121.33,163.17z M110.58,166.43c0-2.56,0.54-5.14,1.63-7.79c1.09-2.65,2.55-5.16,4.4-7.54
				c1.84-2.38,4.01-4.54,6.51-6.48c2.5-1.94,5.15-3.44,7.98-4.5c2.82-1.05,5.48-1.53,7.98-1.39c2.5,0.14,4.68,0.79,6.54,1.97
				c1.86,1.18,3.34,2.85,4.42,5.01c1.08,2.15,1.63,4.69,1.63,7.58c0,2.89-0.54,5.79-1.63,8.67c-1.09,2.88-2.56,5.53-4.42,7.92
				c-1.86,2.4-4.04,4.45-6.54,6.17c-2.5,1.72-5.15,2.91-7.98,3.62c-2.82,0.71-5.48,0.86-7.98,0.5c-2.5-0.37-4.67-1.15-6.51-2.34
				c-1.84-1.19-3.31-2.75-4.4-4.69C111.13,171.21,110.58,168.98,110.58,166.43z"/>
			<path class="st2" d="M179.55,165.77c-4.21-4.4-6.32-6.46-10.53-10.35c-0.25-0.24-0.46-0.3-0.62-0.17
				c-0.16,0.13-0.24,0.38-0.24,0.77c0,4.81,0,7.23,0,12.12c0,0.4-0.13,0.77-0.38,1.11c-0.25,0.34-0.56,0.55-0.92,0.64
				c-3.26,0.8-4.88,1.21-8.14,2.03c-0.4,0.1-0.71,0.05-0.95-0.16c-0.24-0.21-0.35-0.5-0.35-0.88c0-12.87,0-25.74,0-38.61
				c0-0.37,0.12-0.73,0.35-1.07c0.24-0.35,0.55-0.59,0.95-0.74c3.26-1.2,4.88-1.79,8.14-2.94c0.36-0.13,0.67-0.1,0.92,0.07
				c0.25,0.18,0.38,0.45,0.38,0.83c0,5.21,0,7.84,0,13.14c0,0.38,0.07,0.58,0.22,0.59c0.14,0.01,0.33-0.17,0.54-0.55
				c3.91-6.78,5.86-10.2,9.77-16.94c0.22-0.38,0.52-0.73,0.92-1.07c0.4-0.34,0.8-0.57,1.19-0.69c4.15-1.3,6.22-1.92,10.36-3.06
				c0.4-0.11,0.65,0.06,0.76,0.4c0.11,0.35,0.05,0.7-0.16,1.05c-5.71,8.65-8.56,13.95-14.27,23.42c-0.22,0.38-0.32,0.77-0.3,1.18
				c0.02,0.41,0.15,0.72,0.41,0.92c1.23,1.12,2.53,2.3,3.91,3.55s2.74,2.54,4.1,3.88c1.36,1.34,2.69,2.69,4.01,4.05
				c1.32,1.36,2.58,2.78,3.77,4.15c0.25,0.33,0.34,0.7,0.27,1.14c-0.07,0.43-0.31,0.66-0.71,0.69c-4.49,0.3-6.74,1.15-11.23,2.15
				c-0.4,0.09-0.81,0.07-1.22-0.04C180.08,166.24,179.76,166.05,179.55,165.77z"/>
			<path class="st2" d="M207.01,163.59c-3.26,0.09-4.89,0.15-8.15,0.31c-0.4,0.02-0.71-0.11-0.94-0.4
				c-0.23-0.29-0.35-0.65-0.35-1.08c0-14.08,0-28.17,0-42.25c0-0.39,0.12-0.75,0.35-1.06c0.23-0.31,0.55-0.49,0.94-0.55
				c3.26-0.47,4.89-0.67,8.15-0.99c0.36-0.04,0.67,0.08,0.92,0.34c0.25,0.26,0.38,0.59,0.38,1c0,14.36,0,28.72,0,43.08
				c0,0.44-0.13,0.81-0.38,1.12C207.67,163.42,207.37,163.58,207.01,163.59z"/>
			<path class="st2" d="M226.26,129.97c0,1.05,0,1.58,0,2.63c0,0.42,0.13,0.78,0.38,1.08c0.25,0.3,0.56,0.47,0.92,0.48
				c5.86,0.29,8.79,0.57,14.65,1.45c0.36,0.05,0.67,0.25,0.92,0.59c0.25,0.34,0.38,0.72,0.38,1.14c0,3.55,0,5.33,0,8.91
				c0,0.43-0.13,0.77-0.38,1.03c-0.25,0.26-0.56,0.37-0.92,0.32c-5.86-0.82-8.79-1.08-14.65-1.38c-0.36-0.02-0.67,0.12-0.92,0.41
				c-0.25,0.29-0.38,0.65-0.38,1.08c0,5.72,0,8.61,0,14.43c0,0.44-0.13,0.81-0.38,1.11c-0.25,0.3-0.56,0.44-0.92,0.42
				c-3.26-0.13-4.89-0.16-8.15-0.18c-0.36,0-0.67-0.16-0.92-0.47c-0.25-0.31-0.38-0.68-0.38-1.12c0-14.51,0-29.02,0-43.53
				c0-0.41,0.13-0.76,0.38-1.06c0.25-0.3,0.56-0.45,0.92-0.47c11.03-0.4,16.54-0.16,27.57,1.88c0.36,0.07,0.67,0.27,0.92,0.61
				c0.25,0.34,0.38,0.72,0.38,1.14c0,3.43,0,5.15,0,8.61c0,0.42-0.13,0.76-0.38,1c-0.25,0.25-0.56,0.34-0.92,0.28
				c-6.73-1.17-10.09-1.51-16.82-1.83c-0.36-0.02-0.67,0.12-0.92,0.4C226.39,129.2,226.26,129.55,226.26,129.97z"/>
			<path class="st2" d="M284.81,136.37c-5.43,5.5-8.14,8.9-13.56,16.54c-0.18,0.29-0.34,0.67-0.49,1.13
				c-0.14,0.46-0.22,0.9-0.22,1.29c0,5.45,0,8.18,0,13.66c0,0.4-0.13,0.7-0.38,0.91c-0.25,0.21-0.56,0.27-0.92,0.17
				c-3.26-0.87-4.89-1.26-8.15-1.97c-0.36-0.08-0.67-0.29-0.92-0.63c-0.25-0.34-0.38-0.73-0.38-1.14c0-5.69,0-8.53,0-14.17
				c0-0.41-0.06-0.91-0.19-1.5c-0.13-0.59-0.28-1.07-0.46-1.45c-2.17-4.82-4.39-9.58-6.65-14.23c-2.26-4.65-4.51-9.4-6.75-14.19
				c-0.18-0.41-0.22-0.8-0.11-1.17c0.11-0.37,0.34-0.52,0.71-0.45c3.86,0.78,5.79,1.26,9.66,2.41c0.36,0.11,0.73,0.34,1.11,0.71
				c0.38,0.36,0.66,0.76,0.84,1.18c2.66,6.07,3.99,9.13,6.65,15.23c0.18,0.39,0.4,0.62,0.65,0.71c0.25,0.09,0.47,0,0.65-0.25
				c2.64-4.2,3.96-6.2,6.6-9.95c0.18-0.26,0.46-0.42,0.84-0.47s0.75,0.02,1.11,0.2c3.91,1.97,5.86,3.07,9.77,5.52
				c0.36,0.23,0.62,0.52,0.79,0.88C285.16,135.7,285.1,136.04,284.81,136.37z"/>
		</g>
		<g>
			<path class="st3" d="M11.87,208.77c1.95,1.36,3.89,2.4,5.81,3.17c1.92,0.77,3.71,1.19,5.37,1.29c1.59,0.1,2.8-0.02,3.64-0.34
				c0.83-0.32,1.25-0.85,1.25-1.59c0-0.38-0.18-0.7-0.54-0.95c-0.36-0.25-0.84-0.47-1.44-0.67c-0.6-0.2-1.29-0.38-2.09-0.53
				c-0.8-0.16-1.62-0.37-2.44-0.58c-0.78-0.21-1.73-0.43-2.79-0.71c-1.07-0.28-2.16-0.65-3.28-1.12c-1.12-0.47-2.23-1.03-3.34-1.7
				c-1.1-0.67-2.09-1.49-2.96-2.47c-0.87-0.98-1.56-2.11-2.09-3.38c-0.52-1.28-0.79-2.74-0.79-4.35c0-2.38,0.49-4.22,1.47-5.51
				c0.98-1.28,2.22-2.16,3.72-2.65c1.5-0.49,3.17-0.66,5.02-0.54c1.84,0.11,3.64,0.37,5.37,0.75c3.04,0.67,5.76,1.57,8.17,2.72
				c2.41,1.15,4.71,2.55,6.92,4.2c0.29,0.24,0.45,0.51,0.49,0.8c0.04,0.29-0.05,0.54-0.27,0.75c-1.69,1.72-2.54,2.59-4.23,4.34
				c-0.22,0.21-0.51,0.32-0.87,0.34c-0.36,0.02-0.69-0.08-0.98-0.29c-1.84-1.17-3.56-2.09-5.15-2.74c-1.59-0.65-3.06-1.1-4.4-1.33
				c-0.4-0.07-0.86-0.14-1.38-0.22c-0.52-0.08-1.02-0.1-1.49-0.08c-0.47,0.03-0.86,0.14-1.17,0.33c-0.31,0.2-0.46,0.52-0.46,0.97
				s0.38,0.91,1.14,1.39c0.76,0.48,1.63,0.91,2.6,1.31c0.98,0.4,1.92,0.72,2.82,0.99c0.9,0.26,1.48,0.42,1.74,0.49
				c1.3,0.38,2.73,0.87,4.29,1.44c1.55,0.58,3.01,1.31,4.37,2.2c1.36,0.89,2.5,1.97,3.42,3.24c0.92,1.27,1.38,2.79,1.38,4.58
				c0,1.68-0.38,3.1-1.14,4.29c-0.76,1.19-1.82,2.16-3.17,2.93c-1.36,0.77-2.98,1.34-4.88,1.72c-1.9,0.38-4.01,0.57-6.32,0.56
				c-1.88-0.01-3.64-0.14-5.26-0.42c-1.63-0.28-3.15-0.67-4.56-1.18c-1.41-0.51-2.72-1.12-3.93-1.85c-1.21-0.72-2.32-1.51-3.34-2.35
				c-0.29-0.22-0.45-0.51-0.49-0.88c-0.04-0.36,0.05-0.68,0.27-0.94c1.67-2.17,2.51-3.22,4.18-5.26c0.22-0.24,0.51-0.38,0.87-0.4
				C11.25,208.49,11.58,208.58,11.87,208.77z"/>
			<path class="st3" d="M69.16,200c-3.04-0.04-4.56-0.08-7.6-0.18c-0.36-0.01-0.67,0.07-0.92,0.25c-0.25,0.18-0.38,0.41-0.38,0.68
				c0,8.16,0,12.1,0,19.74c0,0.26-0.12,0.47-0.35,0.65c-0.23,0.18-0.55,0.27-0.95,0.26c-3.26-0.01-4.88-0.01-8.14-0.03
				c-0.36,0-0.67-0.09-0.92-0.28c-0.25-0.18-0.38-0.41-0.38-0.67c0-7.88,0-11.93,0-20.23c0-0.28-0.12-0.52-0.35-0.73
				c-0.24-0.21-0.55-0.33-0.95-0.36c-3.08-0.23-4.62-0.36-7.7-0.66c-0.36-0.04-0.67-0.17-0.92-0.39c-0.25-0.23-0.38-0.48-0.38-0.77
				c0-2.34,0-3.51,0-5.88c0-0.29,0.13-0.52,0.38-0.69c0.25-0.17,0.56-0.23,0.92-0.19c9.43,1.22,19.15,1.82,28.65,1.88
				c0.4,0.01,0.71,0.11,0.95,0.3c0.23,0.2,0.35,0.43,0.35,0.71c0,2.27,0,3.39,0,5.61c0,0.27-0.12,0.5-0.35,0.69
				C69.88,199.92,69.56,200.01,69.16,200z"/>
			<path class="st3" d="M84.13,221.44c-3.25,0-4.88,0-8.13,0c-0.36,0-0.67-0.09-0.93-0.26c-0.25-0.17-0.38-0.39-0.38-0.64
				c0-10.24,0-15.66,0-27.1c0-0.28,0.13-0.52,0.38-0.71c0.25-0.2,0.56-0.3,0.92-0.3c6.75-0.06,10.12-0.18,16.87-0.53
				c2.1-0.11,4.03-0.1,5.81,0.14c1.77,0.24,3.28,0.76,4.53,1.57c1.25,0.81,2.22,1.87,2.93,3.18s1.06,2.83,1.06,4.53
				c0,0.94-0.14,1.89-0.41,2.84c-0.27,0.95-0.66,1.86-1.17,2.72c-0.51,0.86-1.1,1.64-1.79,2.34c-0.69,0.7-1.47,1.29-2.33,1.78
				c-0.29,0.19-0.48,0.4-0.57,0.64c-0.09,0.24-0.03,0.46,0.19,0.66c1.37,1.26,2.82,2.58,4.34,3.97c1.52,1.39,2.88,2.7,4.07,3.92
				c0.22,0.22,0.27,0.47,0.16,0.74c-0.11,0.27-0.34,0.4-0.71,0.41c-4.04,0.04-6.06,0.05-10.09,0.09c-0.36,0-0.75-0.06-1.17-0.2
				c-0.42-0.14-0.73-0.3-0.95-0.5c-1.15-1.05-2.29-2.11-3.43-3.2c-1.13-1.09-2.26-2.2-3.38-3.33c-0.22-0.21-0.52-0.38-0.92-0.52
				c-0.4-0.14-0.77-0.21-1.13-0.2c-0.48,0-0.71,0.01-1.19,0.01c-0.36,0-0.67,0.09-0.92,0.28c-0.25,0.18-0.38,0.4-0.38,0.66
				c0,2.5,0,3.73,0,6.16c0,0.25-0.13,0.46-0.38,0.64C84.81,221.35,84.5,221.44,84.13,221.44z M86.74,206.18
				c2.29-0.03,3.43-0.06,5.72-0.11c0.43-0.01,0.88-0.08,1.35-0.21c0.47-0.13,0.9-0.33,1.3-0.6c0.4-0.27,0.72-0.62,0.97-1.03
				c0.25-0.42,0.38-0.89,0.38-1.41c0-0.28-0.06-0.6-0.19-0.95c-0.13-0.36-0.34-0.66-0.65-1c-0.31-0.34-0.72-0.62-1.24-0.83
				c-0.52-0.22-1.16-0.31-1.92-0.29c-2.29,0.08-3.43,0.11-5.72,0.17c-0.36,0.01-0.67,0.11-0.92,0.31c-0.25,0.2-0.38,0.43-0.38,0.71
				c0,1.74,0,2.6,0,4.31c0,0.27,0.13,0.5,0.38,0.68C86.07,206.09,86.38,206.18,86.74,206.18z"/>
			<path class="st3" d="M111.97,205.24c0-2.33,0.54-4.62,1.63-6.91c1.08-2.29,2.55-4.44,4.4-6.44c1.84-2,4.01-3.79,6.51-5.33
				c2.5-1.55,5.15-2.68,7.98-3.35c2.82-0.66,5.48-0.78,7.98-0.29c2.5,0.49,4.68,1.48,6.54,2.98c1.86,1.5,3.34,3.46,4.42,5.86
				c1.08,2.4,1.63,5.12,1.63,8.09c0,2.97-0.54,5.85-1.63,8.56c-1.09,2.71-2.56,5.07-4.42,7.06c-1.86,1.99-4.04,3.53-6.54,4.63
				c-2.49,1.1-5.15,1.62-7.98,1.63c-2.82,0.01-5.48-0.47-7.98-1.38c-2.5-0.91-4.67-2.1-6.51-3.58c-1.84-1.48-3.31-3.18-4.4-5.14
				C112.52,209.68,111.97,207.57,111.97,205.24z M122.72,203.89c0,1.21,0.25,2.33,0.76,3.36c0.51,1.03,1.2,1.92,2.09,2.68
				c0.89,0.76,1.93,1.35,3.12,1.76c1.19,0.42,2.46,0.59,3.8,0.49c1.34-0.1,2.6-0.45,3.8-1.08c1.19-0.63,2.24-1.44,3.15-2.44
				c0.9-1,1.61-2.14,2.12-3.41c0.51-1.27,0.76-2.6,0.76-3.96c0-1.33-0.25-2.58-0.76-3.73s-1.21-2.11-2.12-2.85
				c-0.9-0.75-1.95-1.28-3.15-1.6c-1.19-0.32-2.46-0.35-3.8-0.1c-1.34,0.25-2.6,0.75-3.8,1.48c-1.19,0.73-2.23,1.6-3.12,2.58
				c-0.89,0.99-1.58,2.07-2.09,3.26C122.97,201.53,122.72,202.7,122.72,203.89z"/>
			<path class="st3" d="M180.94,219.39c-4.21-5.79-6.32-8.5-10.53-13.59c-0.25-0.31-0.46-0.42-0.62-0.32
				c-0.16,0.1-0.24,0.36-0.24,0.77c0,5.14,0,7.72,0,12.93c0,0.42-0.13,0.79-0.38,1.09c-0.25,0.3-0.56,0.45-0.92,0.45
				c-3.26,0.03-4.88,0.05-8.14,0.08c-0.4,0-0.71-0.13-0.95-0.41c-0.24-0.28-0.35-0.61-0.35-1.01c0-13.42,0-26.84,0-40.26
				c0-0.39,0.12-0.74,0.35-1.06c0.24-0.32,0.55-0.53,0.95-0.62c3.26-0.74,4.88-1.11,8.14-1.83c0.36-0.08,0.67-0.01,0.92,0.22
				c0.25,0.23,0.38,0.54,0.38,0.94c0,5.57,0,8.37,0,14.03c0,0.41,0.07,0.63,0.22,0.67c0.14,0.04,0.33-0.12,0.54-0.48
				c3.91-6.51,5.86-9.87,9.77-16.66c0.22-0.38,0.52-0.72,0.92-1.04c0.4-0.31,0.8-0.51,1.19-0.59c4.15-0.84,6.22-1.6,10.36-1.83
				c0.4-0.02,0.65,0.17,0.76,0.58c0.11,0.41,0.05,0.79-0.16,1.15c-5.71,8.88-8.56,14.19-14.27,23.39c-0.22,0.37-0.32,0.78-0.3,1.23
				c0.02,0.45,0.15,0.81,0.41,1.09c1.23,1.46,2.53,3.01,3.91,4.66c1.37,1.65,2.74,3.35,4.1,5.11c1.36,1.75,2.69,3.53,4.01,5.32
				c1.32,1.79,2.58,3.55,3.77,5.15c0.25,0.38,0.34,0.8,0.27,1.27c-0.07,0.47-0.31,0.71-0.71,0.71c-4.49,0-6.74,0.03-11.23,0.07
				c-0.4,0-0.81-0.11-1.22-0.33C181.47,220.04,181.15,219.75,180.94,219.39z"/>
			<path class="st3" d="M208.4,220.51c-3.26,0-4.89,0-8.15,0c-0.4,0-0.71-0.17-0.94-0.5c-0.23-0.33-0.35-0.73-0.35-1.21
				c0-15.56,0-31.11,0-46.67c0-0.44,0.12-0.82,0.35-1.13c0.23-0.31,0.55-0.48,0.94-0.5c3.26-0.12,4.89-0.17,8.15-0.22
				c0.36-0.01,0.67,0.14,0.92,0.45c0.25,0.31,0.38,0.68,0.38,1.13c0,15.65,0,31.29,0,46.94c0,0.47-0.13,0.88-0.38,1.21
				C209.06,220.34,208.76,220.51,208.4,220.51z"/>
			<path class="st3" d="M227.65,184.56c0,1.12,0,1.68,0,2.81c0,0.45,0.13,0.83,0.38,1.15c0.25,0.32,0.56,0.49,0.92,0.5
				c5.86,0.23,8.79,0.39,14.65,0.84c0.36,0.03,0.67,0.21,0.92,0.54c0.25,0.33,0.38,0.72,0.38,1.16c0,3.71,0,5.58,0,9.32
				c0,0.44-0.13,0.82-0.38,1.12c-0.25,0.3-0.56,0.44-0.92,0.42c-5.86-0.29-8.79-0.4-14.65-0.55c-0.36-0.01-0.67,0.14-0.92,0.46
				c-0.25,0.32-0.38,0.7-0.38,1.16c0,6.1,0,9.17,0,15.37c0,0.47-0.13,0.86-0.38,1.19c-0.25,0.33-0.56,0.49-0.92,0.49
				c-3.26-0.01-4.89-0.01-8.15-0.02c-0.36,0-0.67-0.17-0.92-0.5c-0.25-0.33-0.38-0.73-0.38-1.21c0-15.67,0-31.35,0-47.02
				c0-0.44,0.13-0.82,0.38-1.13c0.25-0.31,0.56-0.46,0.92-0.46c11.03,0.16,16.54,0.45,27.57,1.79c0.36,0.04,0.67,0.24,0.92,0.57
				c0.25,0.34,0.38,0.72,0.38,1.16c0,3.58,0,5.38,0,8.99c0,0.44-0.13,0.8-0.38,1.08c-0.25,0.28-0.56,0.4-0.92,0.37
				c-6.73-0.65-10.09-0.87-16.82-1.16c-0.36-0.02-0.67,0.13-0.92,0.43C227.78,183.74,227.65,184.11,227.65,184.56z"/>
			<path class="st3" d="M286.2,182.64c-5.43,7.06-8.14,11.19-13.56,20.27c-0.18,0.34-0.34,0.76-0.49,1.26
				c-0.14,0.51-0.22,0.96-0.22,1.36c0,5.51,0,8.28,0,13.82c0,0.4-0.13,0.75-0.38,1.02c-0.25,0.28-0.56,0.42-0.92,0.41
				c-3.26-0.03-4.89-0.05-8.15-0.07c-0.36,0-0.67-0.15-0.92-0.45c-0.25-0.3-0.38-0.66-0.38-1.09c0-5.83,0-8.74,0-14.53
				c0-0.42-0.06-0.92-0.19-1.51c-0.13-0.58-0.28-1.05-0.46-1.41c-2.17-4.55-4.39-9.11-6.65-13.63c-2.26-4.52-4.51-9.21-6.75-14.04
				c-0.18-0.41-0.22-0.82-0.11-1.22c0.11-0.4,0.34-0.57,0.71-0.53c3.86,0.5,5.79,0.79,9.66,1.48c0.36,0.06,0.73,0.26,1.11,0.58
				c0.38,0.32,0.66,0.69,0.84,1.1c2.66,5.86,3.99,8.78,6.65,14.47c0.18,0.36,0.4,0.56,0.65,0.6c0.25,0.04,0.47-0.09,0.65-0.39
				c2.64-4.82,3.96-7.13,6.6-11.5c0.18-0.31,0.46-0.53,0.84-0.66s0.75-0.15,1.11-0.05c3.91,1.08,5.86,1.67,9.77,2.98
				c0.36,0.12,0.62,0.34,0.79,0.65C286.55,181.87,286.49,182.22,286.2,182.64z"/>
		</g>
	</g>
</g>
<g>
</g>
<g>
</g>
<g>
</g>
<g>
</g>
<g>
</g>
<g>
</g>
</svg>
