<?xml version="1.0" encoding="utf-8"?>
<!-- Generator: Adobe Illustrator 28.0.0, SVG Export Plug-In . SVG Version: 6.00 Build 0)  -->
<svg version="1.1" id="Layer_1" xmlns="http://www.w3.org/2000/svg" xmlns:xlink="http://www.w3.org/1999/xlink" x="0px" y="0px"
	 viewBox="0 0 39.9 22.65" style="enable-background:new 0 0 39.9 22.65;" xml:space="preserve">
<style type="text/css">
	.st0{fill:#FFFFFF;}
	.st1{fill:#939598;}
</style>
<g>
	<g>
		<path class="st0" d="M3.48,14.73c1.08,0.7,2.15,1.25,3.21,1.65s2.05,0.6,2.97,0.6c0.88,0,1.55-0.12,2.01-0.38s0.69-0.62,0.69-1.12
			c0-0.26-0.1-0.46-0.3-0.62c-0.2-0.15-0.46-0.27-0.79-0.38c-0.33-0.1-0.72-0.18-1.15-0.24c-0.44-0.06-0.89-0.14-1.35-0.24
			c-0.44-0.08-0.96-0.17-1.54-0.29c-0.59-0.11-1.2-0.27-1.82-0.48s-1.23-0.47-1.84-0.79c-0.61-0.32-1.16-0.73-1.64-1.23
			s-0.87-1.09-1.15-1.79c-0.29-0.69-0.44-1.5-0.44-2.45c0-1.38,0.27-2.52,0.81-3.42c0.54-0.9,1.22-1.61,2.06-2.14
			c0.83-0.53,1.75-0.9,2.77-1.11S7.98,0,8.94,0c1.68,0,3.19,0.25,4.52,0.73c1.33,0.49,2.6,1.21,3.83,2.15
			c0.16,0.14,0.25,0.31,0.27,0.51c0.02,0.2-0.03,0.38-0.15,0.54l-2.34,3.33c-0.12,0.16-0.28,0.26-0.48,0.3
			c-0.2,0.04-0.38,0-0.54-0.12c-1.02-0.64-1.97-1.09-2.85-1.37c-0.88-0.27-1.69-0.4-2.43-0.4c-0.22,0-0.48,0-0.77,0.01
			C7.71,5.7,7.43,5.73,7.17,5.8S6.7,5.99,6.53,6.15S6.27,6.53,6.27,6.81S6.48,7.34,6.9,7.56c0.42,0.22,0.9,0.41,1.44,0.57
			C8.88,8.29,9.4,8.41,9.9,8.51c0.5,0.09,0.82,0.14,0.96,0.17c0.72,0.14,1.51,0.34,2.37,0.61c0.86,0.27,1.67,0.67,2.42,1.2
			c0.75,0.53,1.38,1.22,1.89,2.07c0.51,0.85,0.77,1.92,0.77,3.2c0,1.2-0.21,2.23-0.63,3.1c-0.42,0.87-1,1.58-1.75,2.15
			c-0.75,0.56-1.65,0.97-2.7,1.24c-1.05,0.27-2.22,0.41-3.5,0.41c-1.04,0-2.01-0.08-2.91-0.25s-1.74-0.41-2.52-0.71
			c-0.78-0.3-1.5-0.65-2.17-1.06c-0.67-0.41-1.29-0.84-1.85-1.31C0.11,19.2,0.02,19.03,0,18.82s0.03-0.39,0.15-0.55l2.31-3.33
			c0.12-0.16,0.28-0.26,0.48-0.3C3.14,14.6,3.32,14.63,3.48,14.73z"/>
	</g>
	<path class="st1" d="M14.28,14.73c1.08,0.7,2.15,1.25,3.21,1.65c1.06,0.4,2.05,0.6,2.97,0.6c0.88,0,1.55-0.12,2.01-0.38
		s0.69-0.62,0.69-1.12c0-0.26-0.1-0.47-0.3-0.62c-0.2-0.15-0.46-0.27-0.79-0.38c-0.33-0.1-0.72-0.18-1.15-0.24
		c-0.44-0.06-0.89-0.15-1.35-0.24c-0.44-0.09-0.96-0.17-1.54-0.29c-0.59-0.11-1.2-0.27-1.82-0.48c-0.62-0.21-1.23-0.47-1.84-0.79
		c-0.61-0.32-1.16-0.73-1.64-1.23c-0.48-0.5-0.87-1.09-1.15-1.79c-0.29-0.69-0.44-1.5-0.44-2.45c0-1.38,0.27-2.52,0.81-3.42
		c0.54-0.9,1.22-1.61,2.06-2.14c0.83-0.53,1.75-0.9,2.77-1.11S18.78,0,19.74,0c1.68,0,3.19,0.25,4.52,0.73
		c1.33,0.49,2.6,1.21,3.83,2.15c0.16,0.14,0.25,0.31,0.27,0.51c0.02,0.2-0.03,0.38-0.15,0.54l-2.34,3.33
		c-0.12,0.16-0.28,0.26-0.48,0.3c-0.2,0.04-0.38,0-0.54-0.12c-1.02-0.64-1.97-1.09-2.85-1.37c-0.88-0.27-1.69-0.4-2.43-0.4
		c-0.22,0-0.48,0-0.77,0.01c-0.29,0.01-0.57,0.05-0.83,0.12c-0.26,0.07-0.48,0.18-0.65,0.34s-0.25,0.38-0.25,0.66
		c0,0.28,0.21,0.53,0.63,0.75c0.42,0.22,0.9,0.41,1.44,0.57c0.54,0.16,1.06,0.28,1.56,0.38c0.5,0.09,0.82,0.14,0.96,0.17
		c0.72,0.14,1.51,0.34,2.37,0.61c0.86,0.27,1.67,0.67,2.42,1.2c0.75,0.53,1.38,1.22,1.89,2.07c0.51,0.85,0.77,1.92,0.77,3.2
		c0,1.2-0.21,2.23-0.63,3.1c-0.42,0.87-1,1.58-1.75,2.15c-0.75,0.56-1.65,0.97-2.7,1.24c-1.05,0.27-2.22,0.41-3.5,0.41
		c-1.04,0-2.01-0.08-2.91-0.25s-1.74-0.41-2.52-0.71c-0.78-0.3-1.5-0.65-2.17-1.06c-0.67-0.41-1.29-0.84-1.85-1.31
		c-0.16-0.12-0.25-0.29-0.27-0.5s0.03-0.39,0.15-0.55l2.31-3.33c0.12-0.16,0.28-0.26,0.48-0.3C13.94,14.6,14.12,14.63,14.28,14.73z"
		/>
	<g>
		<path d="M25.08,14.73c1.08,0.7,2.15,1.25,3.21,1.65c1.06,0.4,2.05,0.6,2.97,0.6c0.88,0,1.55-0.12,2.01-0.38s0.69-0.62,0.69-1.12
			c0-0.26-0.1-0.47-0.3-0.62c-0.2-0.15-0.46-0.27-0.79-0.38c-0.33-0.1-0.72-0.18-1.15-0.24c-0.44-0.06-0.89-0.14-1.35-0.24
			c-0.44-0.08-0.96-0.17-1.54-0.29c-0.59-0.11-1.2-0.27-1.82-0.48s-1.23-0.47-1.84-0.79c-0.61-0.32-1.16-0.73-1.64-1.23
			c-0.48-0.5-0.87-1.09-1.15-1.79c-0.29-0.69-0.44-1.5-0.44-2.44c0-1.38,0.27-2.52,0.81-3.42s1.22-1.61,2.06-2.15
			c0.83-0.53,1.75-0.9,2.77-1.11S29.58,0,30.54,0c1.68,0,3.19,0.25,4.52,0.73c1.33,0.49,2.6,1.21,3.83,2.15
			c0.16,0.14,0.25,0.31,0.27,0.51c0.02,0.2-0.03,0.38-0.15,0.54l-2.34,3.33c-0.12,0.16-0.28,0.26-0.48,0.3
			c-0.2,0.04-0.38,0-0.54-0.12c-1.02-0.64-1.97-1.1-2.85-1.37c-0.88-0.27-1.69-0.4-2.43-0.4c-0.22,0-0.48,0-0.77,0.01
			C29.3,5.7,29.03,5.73,28.77,5.8c-0.26,0.07-0.48,0.19-0.65,0.35s-0.25,0.38-0.25,0.66c0,0.28,0.21,0.53,0.63,0.75
			c0.42,0.22,0.9,0.41,1.44,0.57C30.48,8.29,31,8.41,31.5,8.5c0.5,0.09,0.82,0.15,0.96,0.17c0.72,0.14,1.51,0.34,2.37,0.61
			s1.67,0.67,2.42,1.2c0.75,0.53,1.38,1.22,1.89,2.07c0.51,0.85,0.77,1.92,0.77,3.2c0,1.2-0.21,2.23-0.63,3.1
			c-0.42,0.87-1,1.58-1.75,2.15c-0.75,0.56-1.65,0.97-2.7,1.24c-1.05,0.27-2.22,0.41-3.5,0.41c-1.04,0-2.01-0.08-2.91-0.25
			s-1.74-0.41-2.52-0.71c-0.78-0.3-1.5-0.65-2.17-1.06c-0.67-0.41-1.29-0.84-1.85-1.31c-0.16-0.12-0.25-0.29-0.27-0.5
			s0.03-0.39,0.15-0.56l2.31-3.33c0.12-0.16,0.28-0.26,0.48-0.3C24.74,14.6,24.92,14.63,25.08,14.73z"/>
	</g>
</g>
</svg>
